<svg xmlns="http://www.w3.org/2000/svg" width="32" height="32" viewBox="0 0 32 32"><g transform="translate(1424.46 -466.049)"><g stroke="#444166" transform="translate(-479.21 -516.312)"><path fill="#586597" style="line-height:normal;font-variant-ligatures:normal;font-variant-position:normal;font-variant-caps:normal;font-variant-numeric:normal;font-variant-alternates:normal;font-feature-settings:normal;text-indent:0;text-align:start;text-decoration-line:none;text-decoration-style:solid;text-decoration-color:#000;text-transform:none;text-orientation:mixed;shape-padding:0;isolation:auto;mix-blend-mode:normal" stroke="none" d="m -933,982.36133 c -6.75957,0 -12.25,5.49043 -12.25,12.25 -10e-6,6.75957 5.49043,12.24997 12.25,12.24997 6.75957,0 12.25001,-5.4904 12.25,-12.24997 0,-6.75957 -5.49043,-12.25 -12.25,-12.25 z" color="#000" font-family="sans-serif" font-weight="400" overflow="visible"/><path fill="#fff" style="line-height:normal;font-variant-ligatures:normal;font-variant-position:normal;font-variant-caps:normal;font-variant-numeric:normal;font-variant-alternates:normal;font-feature-settings:normal;text-indent:0;text-align:start;text-decoration-line:none;text-decoration-style:solid;text-decoration-color:#000;text-transform:none;text-orientation:mixed;shape-padding:0;isolation:auto;mix-blend-mode:normal" stroke="none" d="m -933,983.36133 c 6.21913,0 11.25,5.03087 11.25,11.25 10e-6,6.21917 -5.03087,11.24997 -11.25,11.24997 -6.21913,0 -11.25001,-5.0308 -11.25,-11.24997 0,-6.21913 5.03087,-11.25 11.25,-11.25 z" color="#000" font-family="sans-serif" font-weight="400" overflow="visible"/><path fill="#ff9395" d="m -933.0012,984.86101 c 5.38991,0 9.75,4.36009 9.75,9.75 1e-5,5.38999 -4.36009,9.74999 -9.75,9.74999 -5.38992,0 -9.75001,-4.36 -9.75,-9.74999 0,-5.38991 4.36008,-9.75 9.75,-9.75 z" color="#000" font-family="sans-serif" font-weight="400" overflow="visible" style="line-height:normal;font-variant-ligatures:normal;font-variant-position:normal;font-variant-caps:normal;font-variant-numeric:normal;font-variant-alternates:normal;font-feature-settings:normal;text-indent:0;text-align:start;text-decoration-line:none;text-decoration-style:solid;text-decoration-color:#000;text-transform:none;text-orientation:mixed;shape-padding:0;isolation:auto;mix-blend-mode:normal" stroke="none"/><path fill="#586597" fill-rule="evenodd" style="line-height:normal;font-variant-ligatures:normal;font-variant-position:normal;font-variant-caps:normal;font-variant-numeric:normal;font-variant-alternates:normal;font-feature-settings:normal;text-indent:0;text-align:start;text-decoration-line:none;text-decoration-style:solid;text-decoration-color:#000;text-transform:none;text-orientation:mixed;shape-padding:0;isolation:auto;mix-blend-mode:normal" stroke="none" d="m -929.98047,987.2832 c -0.9343,0 -1.63302,0.54771 -2.02148,1.16797 -0.38847,0.62026 -0.53927,1.30088 -0.47657,1.86524 l 0.5,4.52343 a 0.50005,0.50005 0 0 0 0.49805,0.44336 h 3 a 0.50005,0.50005 0 0 0 0.49609,-0.44336 l 0.5,-4.52343 c 0.0624,-0.56425 -0.0881,-1.24502 -0.47656,-1.86524 -0.38851,-0.62022 -1.08524,-1.16797 -2.01953,-1.16797 z" color="#000" font-family="sans-serif" font-weight="400" overflow="visible"/><path fill="#c6c6c6" fill-rule="evenodd" style="line-height:normal;font-variant-ligatures:normal;font-variant-position:normal;font-variant-caps:normal;font-variant-numeric:normal;font-variant-alternates:normal;font-feature-settings:normal;text-indent:0;text-align:start;text-decoration-line:none;text-decoration-style:solid;text-decoration-color:#000;text-transform:none;text-orientation:mixed;shape-padding:0;isolation:auto;mix-blend-mode:normal" stroke="none" d="m -929.98047,988.2832 c 0.56571,0 0.91264,0.28341 1.17188,0.69727 0.25924,0.41385 0.35826,0.97171 0.33007,1.22656 l -0.45117,4.07617 h -2.10351 l -0.45118,-4.07617 c -0.0283,-0.25464 0.0709,-0.81272 0.33008,-1.22656 0.25919,-0.41384 0.60813,-0.69727 1.17383,-0.69727 z" color="#000" font-family="sans-serif" font-weight="400" overflow="visible"/><path fill="#586597" fill-rule="evenodd" style="line-height:normal;font-variant-ligatures:normal;font-variant-position:normal;font-variant-caps:normal;font-variant-numeric:normal;font-variant-alternates:normal;font-feature-settings:normal;text-indent:0;text-align:start;text-decoration-line:none;text-decoration-style:solid;text-decoration-color:#000;text-transform:none;text-orientation:mixed;shape-padding:0;isolation:auto;mix-blend-mode:normal" stroke="none" d="m -937.49023,997.61133 a 0.50005,0.50005 0 0 0 -0.5,0.5 v 1.5 c 0,1.09287 0.89342,1.99177 1.98632,1.99997 1.09482,0.012 1.99737,-0.8765 2.01368,-1.96872 a 0.50005,0.50005 0 0 0 0,-0.008 v -1.52344 a 0.50005,0.50005 0 0 0 -0.5,-0.5 z" color="#000" font-family="sans-serif" font-weight="400" overflow="visible"/><path fill="#a0a0a0" fill-rule="evenodd" style="line-height:normal;font-variant-ligatures:normal;font-variant-position:normal;font-variant-caps:normal;font-variant-numeric:normal;font-variant-alternates:normal;font-feature-settings:normal;text-indent:0;text-align:start;text-decoration-line:none;text-decoration-style:solid;text-decoration-color:#000;text-transform:none;text-orientation:mixed;shape-padding:0;isolation:auto;mix-blend-mode:normal" stroke="none" d="m -936.99023,998.61133 h 2 v 1.01562 c -0.008,0.55525 -0.45161,0.99105 -1.00391,0.98435 a 0.50005,0.50005 0 0 0 -0.002,0 c -0.5551,0 -0.99414,-0.445 -0.99414,-0.99997 z" color="#000" font-family="sans-serif" font-weight="400" overflow="visible"/><path fill="#586597" fill-rule="evenodd" style="line-height:normal;font-variant-ligatures:normal;font-variant-position:normal;font-variant-caps:normal;font-variant-numeric:normal;font-variant-alternates:normal;font-feature-settings:normal;text-indent:0;text-align:start;text-decoration-line:none;text-decoration-style:solid;text-decoration-color:#000;text-transform:none;text-orientation:mixed;shape-padding:0;isolation:auto;mix-blend-mode:normal" stroke="none" d="m -931.48047,996.30664 a 0.50005,0.50005 0 0 0 -0.5,0.5 v 1.5 c 0,1.09293 0.89143,1.99186 1.98438,1.99996 1.09482,0.012 1.99932,-0.87847 2.01562,-1.97066 a 0.50005,0.50005 0 0 0 0,-0.008 v -1.52148 a 0.50005,0.50005 0 0 0 -0.5,-0.5 z" color="#000" font-family="sans-serif" font-weight="400" overflow="visible"/><path fill="#a0a0a0" fill-rule="evenodd" style="line-height:normal;font-variant-ligatures:normal;font-variant-position:normal;font-variant-caps:normal;font-variant-numeric:normal;font-variant-alternates:normal;font-feature-settings:normal;text-indent:0;text-align:start;text-decoration-line:none;text-decoration-style:solid;text-decoration-color:#000;text-transform:none;text-orientation:mixed;shape-padding:0;isolation:auto;mix-blend-mode:normal" stroke="none" d="m -930.98047,997.30664 h 2 v 1.01367 c -0.008,0.55516 -0.45356,0.99303 -1.00586,0.98633 a 0.50005,0.50005 0 0 0 -0.002,0 c -0.55506,-0.004 -0.99219,-0.44493 -0.99219,-1 z" color="#000" font-family="sans-serif" font-weight="400" overflow="visible"/><path fill="#586597" fill-rule="evenodd" style="line-height:normal;font-variant-ligatures:normal;font-variant-position:normal;font-variant-caps:normal;font-variant-numeric:normal;font-variant-alternates:normal;font-feature-settings:normal;text-indent:0;text-align:start;text-decoration-line:none;text-decoration-style:solid;text-decoration-color:#000;text-transform:none;text-orientation:mixed;shape-padding:0;isolation:auto;mix-blend-mode:normal" stroke="none" d="m -935.99023,988.61133 c -0.9343,0 -1.63107,0.54771 -2.01954,1.16797 -0.38846,0.62026 -0.53926,1.30087 -0.47656,1.86523 l 0.5,4.52344 a 0.50005,0.50005 0 0 0 0.4961,0.44336 h 3 a 0.50005,0.50005 0 0 0 0.49804,-0.44336 l 0.5,-4.52344 c 0.0624,-0.56424 -0.088,-1.24501 -0.47656,-1.86523 -0.38851,-0.62022 -1.0872,-1.16797 -2.02148,-1.16797 z" color="#000" font-family="sans-serif" font-weight="400" overflow="visible"/><path fill="#c6c6c6" fill-rule="evenodd" style="line-height:normal;font-variant-ligatures:normal;font-variant-position:normal;font-variant-caps:normal;font-variant-numeric:normal;font-variant-alternates:normal;font-feature-settings:normal;text-indent:0;text-align:start;text-decoration-line:none;text-decoration-style:solid;text-decoration-color:#000;text-transform:none;text-orientation:mixed;shape-padding:0;isolation:auto;mix-blend-mode:normal" stroke="none" d="m -935.99023,989.61133 c 0.56571,0 0.91458,0.28341 1.17382,0.69726 0.25924,0.41386 0.35827,0.97171 0.33008,1.22657 l -0.45117,4.07617 h -2.10352 l -0.45117,-4.07617 c -0.0283,-0.25465 0.0709,-0.81272 0.33008,-1.22657 0.25919,-0.41384 0.60618,-0.69726 1.17188,-0.69726 z" color="#000" font-family="sans-serif" font-weight="400" overflow="visible"/><path fill="#586597" fill-rule="evenodd" style="line-height:normal;font-variant-ligatures:normal;font-variant-position:normal;font-variant-caps:normal;font-variant-numeric:normal;font-variant-alternates:normal;font-feature-settings:normal;text-indent:0;text-align:start;text-decoration-line:none;text-decoration-style:solid;text-decoration-color:#000;text-transform:none;text-orientation:mixed;shape-padding:0;isolation:auto;mix-blend-mode:normal" stroke="none" d="m -924.14648,1002.7578 -0.70704,0.707 3.25,3.25 0.70704,-0.707 z" color="#000" font-family="sans-serif" font-weight="400" overflow="visible"/><path fill="#586597" style="line-height:normal;font-variant-ligatures:normal;font-variant-position:normal;font-variant-caps:normal;font-variant-numeric:normal;font-variant-alternates:normal;font-feature-settings:normal;text-indent:0;text-align:start;text-decoration-line:none;text-decoration-style:solid;text-decoration-color:#000;text-transform:none;text-orientation:mixed;shape-padding:0;isolation:auto;mix-blend-mode:normal" stroke="none" d="m -920.04492,1004.3613 a 0.50004997,0.50004997 0 0 0 -0.3457,0.1465 l -2.7129,2.7129 a 0.50004997,0.50004997 0 0 0 0,0.707 l 6.28711,6.2871 a 0.50004997,0.50004997 0 0 0 0.70703,0 l 2.7129,-2.7109 a 0.50004997,0.50004997 0 0 0 0,-0.707 l -6.28711,-6.2891 a 0.50004997,0.50004997 0 0 0 -0.36133,-0.1465 z" color="#000" font-family="sans-serif" font-weight="400" overflow="visible"/><path fill="#f6c490" style="line-height:normal;font-variant-ligatures:normal;font-variant-position:normal;font-variant-caps:normal;font-variant-numeric:normal;font-variant-alternates:normal;font-feature-settings:normal;text-indent:0;text-align:start;text-decoration-line:none;text-decoration-style:solid;text-decoration-color:#000;text-transform:none;text-orientation:mixed;shape-padding:0;isolation:auto;mix-blend-mode:normal" stroke="none" d="m -920.03692,1005.5684 5.58008,5.582 -2.00586,2.0039 -5.58008,-5.5801 z" color="#000" font-family="sans-serif" font-weight="400" overflow="visible"/><path fill="#586597" style="line-height:normal;font-variant-ligatures:normal;font-variant-position:normal;font-variant-caps:normal;font-variant-numeric:normal;font-variant-alternates:normal;font-feature-settings:normal;text-indent:0;text-align:start;text-decoration-line:none;text-decoration-style:solid;text-decoration-color:#000;text-transform:none;text-orientation:mixed;shape-padding:0;isolation:auto;mix-blend-mode:normal" stroke="none" d="m -928.80526,985.53518 c -4.43217,-2.04898 -9.70401,-0.59123 -12.45597,3.44228 -2.75193,4.0335 -2.18423,9.47365 1.3401,12.85314 3.52436,3.3796 8.98224,3.7174 12.89679,0.7988 3.91458,-2.91865 5.14951,-8.24782 2.91655,-12.59019 a 0.50005,0.50005 0 1 0 -0.8889,0.45739 c 2.01264,3.91393 0.90442,8.70137 -2.62395,11.332 -3.52828,2.6306 -8.43337,2.327 -11.60992,-0.7188 -3.1766,-3.04606 -3.68529,-7.93382 -1.20488,-11.56934 2.48042,-3.63554 7.21591,-4.94334 11.21076,-3.09658 a 0.50043094,0.50043094 0 1 0 0.41941,-0.90874 z" color="#000" font-family="sans-serif" font-weight="400" overflow="visible"/></g><path fill="#586597" d="m -1405.1236,471.49691 a 0.5,0.5 0 0 1 -0.6123,0.35354 0.5,0.5 0 0 1 -0.3536,-0.61237 0.5,0.5 0 0 1 0.6124,-0.35355 0.5,0.5 0 0 1 0.3535,0.61238 z"/></g></svg>