<svg xmlns="http://www.w3.org/2000/svg" xmlns:xlink="http://www.w3.org/1999/xlink" width="32" height="32"><defs><linearGradient id="a"><stop offset="0" stop-color="#000092"/><stop offset="1" stop-color="#ff00f3"/></linearGradient><linearGradient id="b" x1="4" x2="25" y1="15.761" y2="15.761" gradientUnits="userSpaceOnUse" xlink:href="#a"/></defs><path fill="url(#b)" d="M11.996 4C9.948 4 7.9 4.78 6.34 6.34c-3.12 3.12-3.12 8.194 0 11.314 2.762 2.763 7.052 3.073 10.166.944l1.515 1.515-.359.362a.5.5 0 0 0 0 .707l5.617 5.613a2.49 2.49 0 0 0 3.516.002c.969-.969.97-2.551.002-3.52l-5.617-5.615a.5.5 0 0 0-.707 0l-.36.36-1.513-1.514c2.128-3.114 1.815-7.406-.948-10.168A7.973 7.973 0 0 0 11.996 4zm0 .994c1.79 0 3.58.684 4.95 2.053a6.994 6.994 0 0 1 0 9.9 6.991 6.991 0 0 1-9.9 0 6.993 6.993 0 0 1 0-9.9 6.976 6.976 0 0 1 4.95-2.053zm.764 3.776a.5.5 0 0 0 0 .001 2.255 2.255 0 0 0-1.58.666l-.006-.003c-.316.316-.43.773-.516 1.228-1.042.197-1.887 1.01-1.887 2.108a2.224 2.224 0 0 0 2.237 2.224l1.736-.014 1.74-.011a.5.5 0 0 0 .496-.498l.006-1.737.008-1.74c.004-1.22-.977-2.232-2.207-2.224H12.76zm.03.996c.694-.006 1.203.518 1.2 1.222l-.006 1.74-.004 1.243-1.244.01-1.738.013A1.2 1.2 0 0 1 9.77 12.77a.5.5 0 0 0 0-.002c0-.35.137-.661.36-.887h.003c.225-.225.533-.363.88-.365a.5.5 0 0 0 .499-.498 1.255 1.255 0 0 1 1.252-1.25h.023a.5.5 0 0 0 .002-.002zm-5.98.377a.5.5 0 0 0-.35.17.5.5 0 0 0-.106.207 5.9 5.9 0 0 0 4.166 7.216.5.5 0 1 0 .257-.966 4.885 4.885 0 0 1-3.459-5.993.5.5 0 0 0-.507-.634zm11.182 7.171 1.403 1.403-.678.678-1.403-1.403.338-.338.34-.34zm2.834 1.409 5.262 5.261c.589.59.589 1.517 0 2.106a1.47 1.47 0 0 1-2.102-.002l-5.263-5.26 2.103-2.105z" color="#000" font-family="sans-serif" font-weight="400" overflow="visible" style="line-height:normal;text-indent:0;text-align:start;text-decoration-line:none;text-decoration-style:solid;text-decoration-color:#000;text-transform:none;block-progression:tb;isolation:auto;mix-blend-mode:normal"/></svg>