<svg xmlns="http://www.w3.org/2000/svg" id="Layer_1" x="0" y="0" version="1.1" viewBox="0 0 29 29" xml:space="preserve"><path d="M14.638 16.036c-1.93 0-3.5-1.57-3.5-3.5v-7c0-1.93 1.57-3.5 3.5-3.5s3.5 1.57 3.5 3.5v7c0 1.93-1.571 3.5-3.5 3.5zm0-12c-.827 0-1.5.673-1.5 1.5v7c0 .827.673 1.5 1.5 1.5s1.5-.673 1.5-1.5v-7c0-.827-.673-1.5-1.5-1.5z"/><path d="M20.138 10.964v1.254c0 2.871-2.093 5.44-4.95 5.719a5.507 5.507 0 0 1-6.05-5.473v-1.5a1 1 0 0 0-2 0v1.5c0 3.796 2.837 6.934 6.5 7.425v4.075h-2.5a1 1 0 0 0 0 2h7a1 1 0 0 0 0-2h-2.5V19.89c3.663-.491 6.5-3.629 6.5-7.425v-1.5a1 1 0 0 0-1-1 .998.998 0 0 0-1 .999z"/></svg>