<svg xmlns="http://www.w3.org/2000/svg" viewBox="0 0 101 101"><path d="M50.5 84.6c18.8 0 34.1-15.3 34.1-34.1S69.3 16.4 50.5 16.4 16.4 31.7 16.4 50.5s15.3 34.1 34.1 34.1zm0-63.4c16.1 0 29.3 13.1 29.3 29.3S66.6 79.8 50.5 79.8 21.2 66.6 21.2 50.5s13.2-29.3 29.3-29.3z"/><path d="M44.8 65.5c-1.3 0-2.4 1.1-2.4 2.4 0 1.3 1.1 2.4 2.4 2.4h15.8c1.3 0 2.4-1.1 2.4-2.4 0-1.3-1.1-2.4-2.4-2.4h-5.5V44.3c0-1.3-1.1-2.4-2.4-2.4h-7.9c-1.3 0-2.4 1.1-2.4 2.4s1.1 2.4 2.4 2.4h5.5v18.8h-5.5z"/><circle cx="49.4" cy="34" r="3.9"/></svg>