<svg xmlns="http://www.w3.org/2000/svg" width="24" height="24" fill="none"><path fill="#292D32" fill-rule="evenodd" d="M11 1.75a3.25 3.25 0 0 0-3.24 3h-.296c-.904 0-1.633 0-2.222.053-.606.055-1.136.172-1.617.45a3.75 3.75 0 0 0-1.373 1.372c-.277.481-.394 1.011-.449 1.617-.053.589-.053 1.318-.053 2.222v.072c0 .904 0 1.633.053 2.222.055.606.172 1.136.45 1.617.253.44.593.822.997 1.125v.055c0 1.367 0 2.47.117 3.337.12.9.38 1.658.981 2.26.602.602 1.36.86 2.26.982.867.116 1.97.116 3.337.116h4.11c1.367 0 2.47 0 3.337-.116.9-.122 1.658-.38 2.26-.982.602-.602.86-1.36.982-2.26.116-.867.116-1.97.116-3.337V15.5a3.75 3.75 0 0 0 .998-1.125c.277-.481.394-1.011.449-1.617.053-.589.053-1.318.053-2.222v-.072c0-.904 0-1.633-.053-2.222-.055-.606-.172-1.136-.45-1.617a3.75 3.75 0 0 0-1.372-1.373c-.481-.277-1.011-.394-1.617-.449-.589-.053-1.318-.053-2.222-.053h-.296a3.25 3.25 0 0 0-3.24-3h-2Zm0 1.5a1.75 1.75 0 0 0-1.732 1.5h5.464A1.75 1.75 0 0 0 13 3.25h-2ZM4.853 18.692c-.086-.639-.1-1.454-.103-2.558.159.027.323.047.492.063.589.053 1.318.053 2.222.053h1.89a2.751 2.751 0 0 0 5.293 0h1.889c.904 0 1.633 0 2.222-.053.17-.016.333-.036.492-.063-.003 1.104-.017 1.919-.103 2.558-.099.734-.28 1.122-.556 1.399-.277.277-.665.457-1.4.556-.755.101-1.756.103-3.191.103h-4c-1.435 0-2.437-.002-3.192-.103-.734-.099-1.122-.28-1.399-.556-.277-.277-.457-.665-.556-1.4Zm9.794-3.942H16.5c.948 0 1.61 0 2.122-.047.503-.046.788-.13 1.003-.254.342-.198.626-.482.824-.824.124-.215.208-.5.254-1.003.046-.512.047-1.174.047-2.122s0-1.61-.047-2.122c-.046-.503-.13-.788-.254-1.003a2.25 2.25 0 0 0-.824-.824c-.215-.124-.5-.208-1.003-.254-.512-.046-1.174-.047-2.122-.047h-9c-.948 0-1.61 0-2.122.047-.503.046-.788.13-1.003.254a2.25 2.25 0 0 0-.824.824c-.124.215-.208.5-.254 1.003-.046.512-.047 1.174-.047 2.122s0 1.61.047 2.122c.046.502.13.788.254 1.003.198.342.482.626.824.824.215.124.5.208 1.003.254.512.046 1.174.047 2.122.047h1.854a2.751 2.751 0 0 1 5.293 0Zm-3.897.75a1.25 1.25 0 1 1 2.5 0 1.25 1.25 0 0 1-2.5 0Z" clip-rule="evenodd"/></svg>