<svg xmlns="http://www.w3.org/2000/svg" width="60" height="60"><path d="M30 8C17.862 8 8 17.862 8 30c0 3.55.908 7.026 2.55 10.168l-2.523 10.6a1 1 0 0 0 1.206 1.205l10.6-2.523C22.974 51.092 26.45 52 30 52c12.137 0 22-9.861 22-22S42.139 8 30 8zm0 2c11.058 0 20 8.943 20 20s-8.943 20-20 20c-3.365 0-6.677-.85-9.627-2.47a1 1 0 0 0-.713-.096l-9.31 2.216 2.216-9.31a1 1 0 0 0-.095-.713A20.004 20.004 0 0 1 10 30c0-11.058 8.943-20 20-20z" color="#000" style="font-feature-settings:normal;font-variant-alternates:normal;font-variant-caps:normal;font-variant-east-asian:normal;font-variant-ligatures:normal;font-variant-numeric:normal;font-variant-position:normal;font-variation-settings:normal;inline-size:0;isolation:auto;mix-blend-mode:normal;shape-margin:0;shape-padding:0;text-decoration-color:#000;text-decoration-line:none;text-decoration-style:solid;text-indent:0;text-orientation:mixed;text-transform:none"/><path d="M20 27c-1.645 0-3 1.355-3 3s1.355 3 3 3 3-1.355 3-3-1.355-3-3-3zm0 2c.564 0 1 .436 1 1s-.436 1-1 1-1-.436-1-1 .436-1 1-1zm10-2c-1.645 0-3 1.355-3 3s1.355 3 3 3 3-1.355 3-3-1.355-3-3-3zm0 2c.564 0 1 .436 1 1s-.436 1-1 1-1-.436-1-1 .436-1 1-1zm10-2c-1.645 0-3 1.355-3 3s1.355 3 3 3 3-1.355 3-3-1.355-3-3-3zm0 2c.564 0 1 .436 1 1s-.436 1-1 1-1-.436-1-1 .436-1 1-1z" color="#000" style="font-feature-settings:normal;font-variant-alternates:normal;font-variant-caps:normal;font-variant-east-asian:normal;font-variant-ligatures:normal;font-variant-numeric:normal;font-variant-position:normal;font-variation-settings:normal;inline-size:0;isolation:auto;mix-blend-mode:normal;shape-margin:0;shape-padding:0;text-decoration-color:#000;text-decoration-line:none;text-decoration-style:solid;text-indent:0;text-orientation:mixed;text-transform:none"/></svg>