<svg xmlns="http://www.w3.org/2000/svg" data-name="Layer 2" viewBox="0 0 32 32"><path d="M24,29H6a3,3,0,0,1-3-3V4A1,1,0,0,1,4,3H24a1,1,0,0,1,1,1V28A1,1,0,0,1,24,29ZM5,5V26a1,1,0,0,0,1,1H23V5ZM26,29H24a1,1,0,0,1-1-1V6a1,1,0,0,1,1-1h4a1,1,0,0,1,1,1V26A3,3,0,0,1,26,29Zm-1-2h1a1,1,0,0,0,1-1V7H25ZM14,15H8a1,1,0,0,1-1-1V8A1,1,0,0,1,8,7h6a1,1,0,0,1,1,1v6A1,1,0,0,1,14,15ZM9,13h4V9H9ZM21,9a1,1,0,0,0-1-1H18a1,1,0,0,0,0,2h2A1,1,0,0,0,21,9Zm0,4a1,1,0,0,0-1-1H18a1,1,0,0,0,0,2h2A1,1,0,0,0,21,13Zm0,6a1,1,0,0,0-1-1H8a1,1,0,0,0,0,2H20A1,1,0,0,0,21,19Zm0,4a1,1,0,0,0-1-1H8a1,1,0,0,0,0,2H20A1,1,0,0,0,21,23Z"/></svg>