<svg xmlns="http://www.w3.org/2000/svg" data-name="Layer 1" viewBox="0 0 98 98"><g data-name="&lt;Group&gt;"><path fill="#00efd1" d="M52.5,44H47V38c0-.8-1.2-1-2-1H40.4c-.9,0-1.4.2-1.4,1v6H32.9c-.8,0-1.9.7-1.9,1.5v4.6A2.2,2.2,0,0,0,32.9,52H39v5.6A1.3,1.3,0,0,0,40.4,59H45c.8,0,2-.6,2-1.4V52h5.5c.8,0,1.5-1,1.5-1.9V45.5A1.5,1.5,0,0,0,52.5,44ZM51,49H45c-.8,0-1,.3-1,1.1V56H42V50.1c0-.8-.8-1.1-1.6-1.1H34V47h6.4A1.6,1.6,0,0,0,42,45.5V40h2v5.5c0,.8.2,1.5,1,1.5h6Z" data-name="&lt;Compound Path&gt;"/><path fill="#00efd1" d="M65.6,40.1,58,32.4V23.3A1.5,1.5,0,0,0,56.4,22H52.5A1.3,1.3,0,0,0,51,23.3v2.2l-7.2-7.2a1.6,1.6,0,0,0-2.2,0L19.8,40.1a1.9,1.9,0,0,0-.3,1.8A1.8,1.8,0,0,0,20.9,43H25V64.6A1.4,1.4,0,0,0,26.4,66H59c.8,0,1-.6,1-1.4V43h4.5a1.8,1.8,0,0,0,1.4-1.1A1.9,1.9,0,0,0,65.6,40.1ZM59,40c-.9,0-2,.3-2,1.1V63H28V41.1c0-.8-.8-1.1-1.6-1.1H24.5L42.7,21.6l8.7,8.6a1.4,1.4,0,0,0,1.7.3,1.6,1.6,0,0,0,.9-1.4V25h1v8a2,2,0,0,0,.4,1.3L60.9,40Z" data-name="&lt;Compound Path&gt;"/></g><path fill="#00acea" d="M89.7,87.5,69.1,67A35.3,35.3,0,1,0,67,69.1L87.5,89.7a1.7,1.7,0,0,0,2.2,0A1.6,1.6,0,0,0,89.7,87.5ZM20.3,66A32.3,32.3,0,0,1,66,20.3,32.3,32.3,0,0,1,20.3,66Z" data-name="&lt;Compound Path&gt;"/></svg>