<svg xmlns="http://www.w3.org/2000/svg" width="550" height="550"><path d="M193.533 378.47c39.804 0 77.681-12.524 109.142-35.696l39.795 39.795a24.886 24.886 0 0 0-4.625 14.509c0 6.698 2.608 12.996 7.344 17.731l118.084 118.084c4.736 4.736 11.033 7.344 17.731 7.344s12.995-2.608 17.731-7.345l34.44-34.44c4.737-4.736 7.346-11.034 7.346-17.732s-2.609-12.996-7.345-17.731L415.093 344.904a24.91 24.91 0 0 0-17.73-7.344 24.886 24.886 0 0 0-14.509 4.625l-39.905-39.905c22.8-31.303 35.119-68.875 35.119-108.344 0-49.291-19.195-95.631-54.049-130.485-34.855-34.854-81.195-54.049-130.486-54.049S97.902 28.597 63.048 63.45c-71.949 71.95-71.949 189.021 0 260.971 34.854 34.854 81.195 54.049 130.485 54.049zm207.417-19.424 118.085 118.085a5.056 5.056 0 0 1 1.487 3.588c0 .785-.193 2.295-1.488 3.59l-34.44 34.44c-1.293 1.293-2.804 1.487-3.589 1.487s-2.295-.193-3.589-1.487L359.332 400.667c-1.293-1.293-1.486-2.804-1.486-3.589s.193-2.295 1.487-3.589l17.219-17.219 17.222-17.222a5.054 5.054 0 0 1 3.589-1.486 5.044 5.044 0 0 1 3.587 1.484zm-32.491-2.97-6.049 6.049-6.049 6.049-38.178-38.177a187.784 187.784 0 0 0 5.835-5.577 188.322 188.322 0 0 0 6.239-6.547l38.202 38.203zM77.19 77.593c31.076-31.077 72.394-48.191 116.343-48.191 43.948 0 85.266 17.115 116.343 48.191s48.191 72.395 48.191 116.343c0 40.032-14.205 77.877-40.222 107.792l-16.524 16.523c-29.914 26.015-67.758 40.219-107.788 40.219-43.948 0-85.267-17.114-116.343-48.191-64.151-64.152-64.151-168.534 0-232.686z"/><path d="M193.533 340.278c39.09 0 75.84-15.222 103.481-42.863 57.058-57.059 57.058-149.901 0-206.959-27.641-27.641-64.392-42.863-103.481-42.863S117.694 62.815 90.054 90.456c-57.059 57.059-57.059 149.901 0 206.96 27.64 27.64 64.39 42.862 103.479 42.862zm-89.337-235.68c23.863-23.863 55.59-37.005 89.337-37.005 33.748 0 65.476 13.142 89.339 37.006 49.26 49.26 49.26 129.414 0 178.675-23.864 23.863-55.592 37.005-89.339 37.005s-65.475-13.142-89.337-37.005c-49.261-49.261-49.261-129.415 0-178.676z"/><path d="M188.928 247.468c-13.573 0-26.178-4.605-34.903-10.423l-5.818 16.241c8.484 6.06 23.027 10.422 37.087 10.665v24.482h15.271v-25.208c24.967-4.121 38.298-22.058 38.298-41.208 0-21.572-12.604-34.177-37.571-44.358-21.088-8.726-30.057-15.028-30.057-27.632 0-9.696 7.03-20.846 25.694-20.846 15.513 0 25.451 5.332 30.541 8.241l6.061-15.998c-7.03-4.121-16.968-8-31.512-8.484V89.428h-15.028v24.482c-22.3 3.635-36.602 18.906-36.602 39.025 0 21.089 15.271 32.239 39.995 41.934 17.938 7.272 27.391 15.513 27.391 28.845-.002 13.816-11.636 23.754-28.847 23.754z"/></svg>