<svg xmlns="http://www.w3.org/2000/svg" viewBox="0 0 512 512"><g data-name="Search job"><polygon fill="#90a4ae" points="353.15 346.25 342.54 356.86 337.96 352.28 317.86 332.17 306.59 320.9 317.19 310.29 353.15 346.25"/><path fill="#728389" d="M353.15 346.25l-10.61 10.61-6.44-6.44a27.66 27.66 0 0 1 10.6-10.62zM330.1 323.19c-3.74 3.83-8 7.79-10.82 10.39L308 322.3l10.6-10.61z"/><path fill="#bcd1d8" d="M192.78,377.13A188.59,188.59,0,0,1,4.7,188,188.07,188.07,0,0,1,191.7,1h1.05A188.07,188.07,0,0,1,325.75,322a186.91,186.91,0,0,1-131.92,55.08Z" data-name="&lt;Group&gt;"/><path fill="#fe9e14" d="M498.81,476.83a27.57,27.57,0,0,1-8.44,19.51c-.47.45-1,.9-1.45,1.31a27.75,27.75,0,0,1-37.82-1.91l-108-111.35A27.78,27.78,0,0,1,383,345.71L491,457.07A27.57,27.57,0,0,1,498.81,476.83Z" data-name="&lt;Group&gt;"/><path fill="#909fa3" d="M192.78,366.3A177.24,177.24,0,0,1,67.44,63.73,176.15,176.15,0,0,1,191.76,11.82h1A177.24,177.24,0,0,1,318.09,314.39,176.14,176.14,0,0,1,193.77,366.3Z" data-name="&lt;Group&gt;"/><path fill="#90caf9" d="M315,66.84A171.79,171.79,0,0,0,192.75,16h-1C97.41,16.51,20.21,93.71,19.7,188.08A173.59,173.59,0,0,0,192.78,362.13h1c94.36-.52,171.56-77.72,172.08-172.09A171.75,171.75,0,0,0,315,66.84Z"/><path fill="#db8012" d="M474.16,501.5a28.36,28.36,0,0,0,14.76-3.85,27.75,27.75,0,0,1-37.82-1.91l-108-111.35a27.63,27.63,0,0,1-7.71-21.83,28.28,28.28,0,0,0,7.76,15.87l111,114.39A28.36,28.36,0,0,0,474.16,501.5Z" data-name="&lt;Group&gt;"/><path fill="#74b6e2" d="M347.82,265.69c-28.27,56.74-86.81,96.07-154.07,96.44h-1a173.8,173.8,0,0,1-171-146.06A207.13,207.13,0,0,0,58.37,265.4c38.89,38.9,90.31,60.28,144.9,60.28h1.15A204.55,204.55,0,0,0,347.82,265.69Z"/><path fill="#fff" d="M332.88,139.38a4,4,0,0,1-3.62-2.3c-33-70.31-94-93.13-94.62-93.35a4,4,0,0,1,2.73-7.52c.66.24,16.47,6.07,36.66,21a202.48,202.48,0,0,1,62.48,76.45,4,4,0,0,1-3.62,5.7Z" opacity=".4"/><path fill="#2196f3" d="M112.8 134.62H132V201q0 14.26-8.75 22.71t-22.48 8.45q-15.25 0-24.16-7.53T68 202.75l.13-.4H86.92q0 7.66 3.76 11.32t10.1 3.66a10.43 10.43 0 0 0 8.65-4.39q3.37-4.39 3.37-12zM227.33 191.32q0 17.76-11.16 29.28t-29 11.52q-17.82 0-28.91-11.55t-11.09-29.24V174q0-17.62 11.06-29.21T187 133.23q17.89 0 29.11 11.58T227.33 174zM208.12 173.9q0-11.22-5.61-18.42T187 148.29q-9.77 0-15.21 7.2t-5.45 18.42v17.43q0 11.42 5.48 18.62t15.31 7.19q9.9 0 15.45-7.19t5.54-18.62zM242.58 230.73V134.62h31.49q17 0 26.47 6.63T310 161a20.4 20.4 0 0 1-13.47 19.67q9 1.65 13.53 7.79a23.38 23.38 0 0 1 4.55 14.33q0 13.8-9.11 20.89t-25.81 7.1zm19.28-55.85h12.87q7.73 0 11.88-3.17t4.16-9.24q0-6.67-4.19-9.84t-12.51-3.17H261.85zm0 13.33v27.73h17.89q7.66 0 11.68-3.33t4-9.87q0-7-4-10.76t-11.95-3.76z"/><path fill="none" stroke="#fff" stroke-linecap="round" stroke-linejoin="round" stroke-width="3" d="M128.74 143.18V201s1.66 16.74-17.68 25.58M185 137.23q16.86 0 27.44 11.58T223 178M270.06 137.62q17 0 26.47 6.63T306 164"/></g></svg>