<svg xmlns="http://www.w3.org/2000/svg" xmlns:xlink="http://www.w3.org/1999/xlink" viewBox="0 0 20 20"><defs><linearGradient id="a"><stop offset="0" stop-color="#000092"/><stop offset="1" stop-color="#ff00f3"/></linearGradient><linearGradient id="b" x1="2.559" x2="15" y1="10.078" y2="10.078" gradientUnits="userSpaceOnUse" xlink:href="#a"/></defs><path style="line-height:normal;text-indent:0;text-align:start;text-decoration-line:none;text-decoration-style:solid;text-decoration-color:#000;text-transform:none;block-progression:tb;isolation:auto;mix-blend-mode:normal" fill="url(#b)" d="M10.035 2.889c-.34-.025-.765.118-.91.552l.027-.064-1.798 3.6c-.017.032-.008.018-.014.027l-3.916.601L3.5 7.6a.961.961 0 0 0-.879.609.993.993 0 0 0 .225 1.045l.004.002 3.048 2.951v.053l-.691 3.851.008-.033c-.095.38.061.79.353 1.002.292.212.706.241 1.055.066h.004l3.496-1.798c.033-.017.037-.011.035-.01l3.514 1.807-.049-.03c.705.47 1.672-.2 1.463-1.037l-.693-3.863 2.761-2.762c.288-.287.346-.718.229-1.047a1.086 1.086 0 0 0-.762-.691l-.021-.006-3.815-.586a.79.79 0 0 1-.185-.14l-1.752-3.506.037.101c-.107-.428-.51-.665-.85-.69zm-.06 1.078 1.814 3.629.057.058c.1.1.271.263.531.393l.07.035 3.932.604.002.002a.104.104 0 0 1 .06.056c.008.022.019-.01.006.002l-2.8 2.8a.954.954 0 0 0-.247.395.756.756 0 0 0 .024.536l.676 3.763-3.471-1.785.125.092c-.336-.336-.759-.254-1.078-.094h-.002L6.2 16.24l.7-3.896V12.3c0-.1.004-.198-.024-.336a.89.89 0 0 0-.223-.418l-.004-.004L3.598 8.59l3.879-.596L7.4 8a.917.917 0 0 0 .55-.184c.15-.12.233-.262.298-.392l1.727-3.457z" color="#000" font-family="sans-serif" font-weight="400" overflow="visible"/></svg>