<svg xmlns="http://www.w3.org/2000/svg" enable-background="new 0 0 47.5 47.5" viewBox="0 0 47.5 47.5"><defs><clipPath id="a"><path d="M0 38h38V0H0v38Z"/></clipPath></defs><g clip-path="url(#a)" transform="matrix(1.25 0 0 -1.25 0 47.5)"><path fill="#3b88c3" d="M0 0a4 4 0 0 0-4-4h-28a4 4 0 0 0-4 4v28a4 4 0 0 0 4 4h28a4 4 0 0 0 4-4V0Z" transform="translate(37 5)"/><path fill="#fff" d="M0 0h-3.38c-1.488 0-2.108 1.085-2.108 2.139 0 1.086.775 2.14 2.108 2.14H8.031c1.332 0 2.107-1.054 2.107-2.14C10.138 1.085 9.519 0 8.031 0H4.65v-15.565c0-1.551-.992-2.418-2.325-2.418-1.333 0-2.325.867-2.325 2.418V0Z" transform="translate(16.676 25.797)"/></g></svg>