<svg xmlns="http://www.w3.org/2000/svg" width="24" height="24"><path fill="none" d="M0 0h24v24H0Z" data-name="Path 3656"/><path fill="#525863" d="M3.3 21.6a.884.884 0 0 1-.9-.9v-3.6a.885.885 0 0 1 .9-.9.885.885 0 0 1 .9.9v2.7h15.6v-2.7a.885.885 0 0 1 .9-.9.885.885 0 0 1 .9.9v3.6a.884.884 0 0 1-.9.9Zm5.948-6.929v-3.48a4.094 4.094 0 0 1-.84.12 2.675 2.675 0 0 1-1.919-.781 2.7 2.7 0 0 1 0-3.809l3.539-3.54a2.806 2.806 0 0 1 1.92-.78 2.675 2.675 0 0 1 1.92.78l3.54 3.54a2.7 2.7 0 0 1 0 3.809 2.8 2.8 0 0 1-1.92.781 2.6 2.6 0 0 1-.84-.12v3.48a2.689 2.689 0 0 1-2.7 2.7 2.689 2.689 0 0 1-2.701-2.701Zm1.8-5.1v5.1a.884.884 0 0 0 .9.9.885.885 0 0 0 .9-.9v-7.41l.39.39 1.62 1.62a.851.851 0 0 0 .63.27.894.894 0 0 0 .63-.27.812.812 0 0 0 .27-.631.889.889 0 0 0-.27-.63l-3.539-3.54a.815.815 0 0 0-.631-.27.894.894 0 0 0-.63.27l-3.51 3.51a.815.815 0 0 0-.27.631.894.894 0 0 0 .27.63.851.851 0 0 0 .63.27.9.9 0 0 0 .631-.27l1.62-1.62.36-.36Z" data-name="Path 3616"/></svg>